<svg xmlns="http://www.w3.org/2000/svg" width="22" height="22" viewBox="0 0 22 22">
  <g id="Group_10867" data-name="Group 10867" opacity="0.8">
    <g id="primary" transform="translate(3.143 2.619)" fill="#4ba36d" stroke="#565658" stroke-linecap="round" stroke-width="3">
      <circle cx="8.905" cy="8.905" r="8.905" stroke="none"/>
      <circle cx="8.905" cy="8.905" r="7.405" fill="none"/>
    </g>
    <circle id="primary-2" data-name="primary" cx="11" cy="11" r="11" fill="#4ba36d"/>
    <g id="secondary" transform="translate(-1.413 -1.248)" fill="#4ba36d" stroke-linecap="round">
      <path d="M 11.3304615020752 15.58433055877686 C 11.30861186981201 15.58433055877686 11.28725147247314 15.57543087005615 11.27185153961182 15.55991077423096 L 8.021381378173828 12.30942058563232 C 8.004471778869629 12.29252052307129 7.995901584625244 12.27183055877686 7.995901584625244 12.2479305267334 C 7.995901584625244 12.22404098510742 8.004471778869629 12.20335102081299 8.021371841430664 12.18646049499512 C 8.038281440734863 12.16954040527344 8.058971405029297 12.16097068786621 8.082871437072754 12.16097068786621 C 8.106771469116211 12.16097068786621 8.127461433410645 12.16954040527344 8.144351959228516 12.18644046783447 L 10.62181186676025 14.67472076416016 L 11.32974147796631 15.38574028015137 L 12.03839111328125 14.67544078826904 L 16.68245124816895 10.02055072784424 C 16.69853210449219 10.00448036193848 16.71921157836914 9.99591064453125 16.74312210083008 9.99591064453125 C 16.76702117919922 9.99591064453125 16.78770065307617 10.00448036193848 16.80460166931152 10.02138042449951 C 16.82151222229004 10.03828048706055 16.83008193969727 10.05897045135498 16.83008193969727 10.08287048339844 C 16.83008193969727 10.10676097869873 16.82151222229004 10.12745094299316 16.80461120605469 10.14434051513672 L 11.39195156097412 15.55701065063477 C 11.37367153167725 15.57543087005615 11.35231113433838 15.58433055877686 11.3304615020752 15.58433055877686 Z" stroke="none"/>
      <path d="M 16.74311637878418 8.99591064453125 C 17.02129364013672 8.99591064453125 17.29947090148926 9.102029800415039 17.51171112060547 9.31427001953125 C 17.93620109558105 9.738760948181152 17.93620109558105 10.42698097229004 17.51171112060547 10.85146045684814 L 12.09906196594238 16.26412010192871 C 11.89579105377197 16.46906089782715 11.61910152435303 16.58433151245117 11.3304615020752 16.58433151245117 C 11.04182147979736 16.58433151245117 10.76513195037842 16.46906089782715 10.56186199188232 16.26412010192871 L 7.314271926879883 13.01653099060059 C 6.889781951904297 12.592041015625 6.889781951904297 11.90382099151611 7.314271926879883 11.47934055328369 C 7.738754272460938 11.05484962463379 8.426982879638672 11.05485153198242 8.851461410522461 11.47933101654053 L 11.3304615020752 13.96916007995605 L 15.97452163696289 9.31427001953125 C 16.1867618560791 9.102029800415039 16.46493911743164 8.99591064453125 16.74311637878418 8.99591064453125 Z" stroke="none" fill="#fff"/>
    </g>
  </g>
</svg>
